HIERARCHY
ROOT Hips
{
    OFFSET 0.000000 0.000000 0.000000
    CHANNELS 6 Xposition Yposition Zposition Zrotation Xrotation Yrotation
    JOINT Spine
    {
        OFFSET -0.000000 7.284621 0.000000
        CHANNELS 3 Zrotation Xrotation Yrotation
        JOINT Spine1
        {
            OFFSET -0.000000 19.968920 0.000000
            CHANNELS 3 Zrotation Xrotation Yrotation
            JOINT Neck
            {
                OFFSET -0.000000 21.745657 0.000000
                CHANNELS 3 Zrotation Xrotation Yrotation
                JOINT Head
                {
                    OFFSET -0.000000 13.769711 1.776737
                    CHANNELS 3 Zrotation Xrotation Yrotation
                    End Site
                    {
                        OFFSET -0.000000 17.767368 0.000000
                    }
                }
            }
            JOINT LeftShoulder
            {
                OFFSET 3.594505 17.711157 -0.013107
                CHANNELS 3 Zrotation Xrotation Yrotation
                JOINT LeftArm
                {
                    OFFSET 12.210003 0.000000 0.000000
                    CHANNELS 3 Zrotation Xrotation Yrotation
                    JOINT LeftForeArm
                    {
                        OFFSET 24.535166 0.000000 0.000000
                        CHANNELS 3 Zrotation Xrotation Yrotation
                        JOINT LeftHand
                        {
                            OFFSET 20.235195 0.000000 0.000000
                            CHANNELS 3 Zrotation Xrotation Yrotation
                            JOINT LeftHandThumb1
                            {
                                OFFSET 1.906737 -2.166747 3.033446
                                CHANNELS 3 Zrotation Xrotation Yrotation
                                JOINT LeftHandThumb2
                                {
                                    OFFSET 2.043247 0.000000 1.332553
                                    CHANNELS 3 Zrotation Xrotation Yrotation
                                    JOINT LeftHandThumb3
                                    {
                                        OFFSET 2.665105 0.000000 0.000000
                                        CHANNELS 3 Zrotation Xrotation Yrotation
                                        End Site
                                        {
                                            OFFSET 2.367595 0.000000 0.000000
                                        }
                                    }
                                }
                            }
                            JOINT LeftHandIndex1
                            {
                                OFFSET 7.800290 0.000000 3.033446
                                CHANNELS 3 Zrotation Xrotation Yrotation
                                JOINT LeftHandIndex2
                                {
                                    OFFSET 4.441842 0.000000 0.000000
                                    CHANNELS 3 Zrotation Xrotation Yrotation
                                    JOINT LeftHandIndex3
                                    {
                                        OFFSET 2.220921 0.000000 0.000000
                                        CHANNELS 3 Zrotation Xrotation Yrotation
                                        End Site
                                        {
                                            OFFSET 1.972996 0.000000 0.000000
                                        }
                                    }
                                }
                            }
                            JOINT LeftHandMiddle1
                            {
                                OFFSET 7.800290 0.000000 1.005371
                                CHANNELS 3 Zrotation Xrotation Yrotation
                                JOINT LeftHandMiddle2
                                {
                                    OFFSET 4.886026 0.000000 0.000000
                                    CHANNELS 3 Zrotation Xrotation Yrotation
                                    JOINT LeftHandMiddle3
                                    {
                                        OFFSET 2.665105 0.000000 0.000000
                                        CHANNELS 3 Zrotation Xrotation Yrotation
                                        End Site
                                        {
                                            OFFSET 2.367595 0.000000 0.000000
                                        }
                                    }
                                }
                            }
                            JOINT LeftHandRing1
                            {
                                OFFSET 7.366940 0.000000 -1.005371
                                CHANNELS 3 Zrotation Xrotation Yrotation
                                JOINT LeftHandRing2
                                {
                                    OFFSET 4.441842 0.000000 0.000000
                                    CHANNELS 3 Zrotation Xrotation Yrotation
                                    JOINT LeftHandRing3
                                    {
                                        OFFSET 2.220921 0.000000 0.000000
                                        CHANNELS 3 Zrotation Xrotation Yrotation
                                        End Site
                                        {
                                            OFFSET 1.972996 0.000000 0.000000
                                        }
                                    }
                                }
                            }
                            JOINT LeftHandPinky1
                            {
                                OFFSET 6.933591 0.000000 -3.033446
                                CHANNELS 3 Zrotation Xrotation Yrotation
                                JOINT LeftHandPinky2
                                {
                                    OFFSET 3.553473 0.000000 0.000000
                                    CHANNELS 3 Zrotation Xrotation Yrotation
                                    JOINT LeftHandPinky3
                                    {
                                        OFFSET 1.776737 0.000000 0.000000
                                        CHANNELS 3 Zrotation Xrotation Yrotation
                                        End Site
                                        {
                                            OFFSET 1.578397 0.000000 0.000000
                                        }
                                    }
                                }
                            }
                        }
                    }
                }
            }
            JOINT RightShoulder
            {
                OFFSET -3.500468 17.711157 -0.013107
                CHANNELS 3 Zrotation Xrotation Yrotation
                JOINT RightArm
                {
                    OFFSET -12.210003 0.000000 0.000000
                    CHANNELS 3 Zrotation Xrotation Yrotation
                    JOINT RightForeArm
                    {
                        OFFSET -24.535166 0.000000 0.000000
                        CHANNELS 3 Zrotation Xrotation Yrotation
                        JOINT RightHand
                        {
                            OFFSET -20.235195 0.000000 0.000000
                            CHANNELS 3 Zrotation Xrotation Yrotation
                            JOINT RightHandThumb1
                            {
                                OFFSET -1.906737 -2.166747 3.033446
                                CHANNELS 3 Zrotation Xrotation Yrotation
                                JOINT RightHandThumb2
                                {
                                    OFFSET -2.043247 0.000000 1.332553
                                    CHANNELS 3 Zrotation Xrotation Yrotation
                                    JOINT RightHandThumb3
                                    {
                                        OFFSET -2.665105 0.000000 0.000000
                                        CHANNELS 3 Zrotation Xrotation Yrotation
                                        End Site
                                        {
                                            OFFSET -2.367595 0.000000 0.000000
                                        }
                                    }
                                }
                            }
                            JOINT RightHandIndex1
                            {
                                OFFSET -7.800290 0.000000 3.033446
                                CHANNELS 3 Zrotation Xrotation Yrotation
                                JOINT RightHandIndex2
                                {
                                    OFFSET -4.441842 0.000000 0.000000
                                    CHANNELS 3 Zrotation Xrotation Yrotation
                                    JOINT RightHandIndex3
                                    {
                                        OFFSET -2.220921 0.000000 0.000000
                                        CHANNELS 3 Zrotation Xrotation Yrotation
                                        End Site
                                        {
                                            OFFSET -1.972996 0.000000 0.000000
                                        }
                                    }
                                }
                            }
                            JOINT RightHandMiddle1
                            {
                                OFFSET -7.800290 0.000000 1.005371
                                CHANNELS 3 Zrotation Xrotation Yrotation
                                JOINT RightHandMiddle2
                                {
                                    OFFSET -4.886026 0.000000 0.000000
                                    CHANNELS 3 Zrotation Xrotation Yrotation
                                    JOINT RightHandMiddle3
                                    {
                                        OFFSET -2.665105 0.000000 0.000000
                                        CHANNELS 3 Zrotation Xrotation Yrotation
                                        End Site
                                        {
                                            OFFSET -2.367595 0.000000 0.000000
                                        }
                                    }
                                }
                            }
                            JOINT RightHandRing1
                            {
                                OFFSET -7.366940 0.000000 -1.005371
                                CHANNELS 3 Zrotation Xrotation Yrotation
                                JOINT RightHandRing2
                                {
                                    OFFSET -4.441842 0.000000 0.000000
                                    CHANNELS 3 Zrotation Xrotation Yrotation
                                    JOINT RightHandRing3
                                    {
                                        OFFSET -2.220921 0.000000 0.000000
                                        CHANNELS 3 Zrotation Xrotation Yrotation
                                        End Site
                                        {
                                            OFFSET -1.972996 0.000000 0.000000
                                        }
                                    }
                                }
                            }
                            JOINT RightHandPinky1
                            {
                                OFFSET -6.933591 0.000000 -3.033446
                                CHANNELS 3 Zrotation Xrotation Yrotation
                                JOINT RightHandPinky2
                                {
                                    OFFSET -3.553473 0.000000 0.000000
                                    CHANNELS 3 Zrotation Xrotation Yrotation
                                    JOINT RightHandPinky3
                                    {
                                        OFFSET -1.776737 0.000000 0.000000
                                        CHANNELS 3 Zrotation Xrotation Yrotation
                                        End Site
                                        {
                                            OFFSET -1.578397 0.000000 0.000000
                                        }
                                    }
                                }
                            }
                        }
                    }
                }
            }
        }
    }
    JOINT LeftUpLeg
    {
        OFFSET 8.883684 0.000000 0.000000
        CHANNELS 3 Zrotation Xrotation Yrotation
        JOINT LeftLeg
        {
            OFFSET -0.000000 -38.184189 0.000000
            CHANNELS 3 Zrotation Xrotation Yrotation
            JOINT LeftFoot
            {
                OFFSET -0.000000 -35.840691 0.000000
                CHANNELS 3 Zrotation Xrotation Yrotation
                JOINT LeftToeBase
                {
                    OFFSET -0.000000 -5.774395 13.325527
                    CHANNELS 3 Zrotation Xrotation Yrotation
                    End Site
                    {
                        OFFSET -0.000000 0.000000 3.553473
                    }
                }
            }
        }
    }
    JOINT RightUpLeg
    {
        OFFSET -8.883684 0.000000 0.000000
        CHANNELS 3 Zrotation Xrotation Yrotation
        JOINT RightLeg
        {
            OFFSET -0.000000 -38.184189 0.000000
            CHANNELS 3 Zrotation Xrotation Yrotation
            JOINT RightFoot
            {
                OFFSET -0.000000 -35.840691 0.000000
                CHANNELS 3 Zrotation Xrotation Yrotation
                JOINT RightToeBase
                {
                    OFFSET -0.000000 -5.774395 13.325527
                    CHANNELS 3 Zrotation Xrotation Yrotation
                    End Site
                    {
                        OFFSET -0.000000 0.000000 3.553473
                    }
                }
            }
        }
    }
}
MOTION
Frames:    4
Frame Time:    0.008333
-2.812129    81.358292    114.942871    1.560847    0.579907    2.744990    -1.264063    0.844732    -3.751495    -1.032566    4.044391    -1.216846    4.111063    -4.865842    -2.530448    -5.462319    3.991836    -1.353262    2.098966    8.493479    -9.135185    -83.291412    38.657207    -5.021137    7.435606    -9.737291    1.012010    -9.786132    -41.728611    -10.645005    7.622728    -2.692018    4.919295    -0.000000    0.000000    2.941885    -0.000000    0.000000    5.883771    -4.333288    0.067765    -0.894220    -8.667634    0.000000    0.000000    -4.333817    0.000000    0.000000    -12.380654    -1.470369    3.532025    -24.915764    0.000000    0.000000    -12.457881    0.000000    0.000000    -20.297197    -3.608397    7.705567    -41.163895    0.000000    0.000000    -20.581949    0.000000    0.000000    -28.299044    -6.384859    11.669821    -57.904388    0.000000    0.000000    -28.952194    0.000000    0.000000    -3.252503    0.022619    2.857209    88.973724    53.168350    -5.556013    -4.179865    -18.211462    5.937709    28.017006    -61.645237    30.554138    -0.757979    0.225798    -0.953264    0.000000    0.000000    -1.055810    0.000000    0.000000    -2.111620    3.168977    0.000000    -0.000000    6.337953    0.000000    -0.000000    3.168977    0.000000    -0.000000    10.867020    -0.100115    -0.296076    21.734867    0.000000    -0.000000    10.867435    0.000000    -0.000000    18.564499    -0.238986    -0.576076    37.131783    0.000000    -0.000000    18.565891    0.000000    -0.000000    26.494547    -0.419949    -0.842420    52.995274    0.000000    -0.000000    26.497635    0.000000    -0.000000    -2.806210    -1.327472    -1.567168    -0.906346    2.743958    -5.372566    1.214365    -2.320286    6.516771    0.275973    0.904601    -0.392752    -2.171177    -5.866563    0.732579    1.601984    15.878201    -3.636201    -1.381250    -10.014112    -5.722885    0.133297    -0.327936    -0.214916    
-2.809085    81.390999    114.890465    1.580295    0.673898    2.905583    -1.378045    0.893288    -3.879501    -0.892987    3.931987    -1.265741    4.062697    -4.945496    -2.506340    -5.504226    3.935183    -1.331424    2.112602    8.491741    -9.200855    -83.429863    38.784386    -5.030235    7.423338    -9.789032    1.051157    -9.720814    -41.768456    -10.604700    7.611442    -2.623896    4.996202    -0.000000    0.000000    3.014620    -0.000000    0.000000    6.029240    -4.308332    0.066467    -0.882202    -8.617689    0.000000    0.000000    -4.308845    0.000000    0.000000    -12.314334    -1.463005    3.539848    -24.782476    0.000000    0.000000    -12.391240    0.000000    0.000000    -20.190271    -3.588892    7.711921    -40.947266    0.000000    0.000000    -20.473635    0.000000    0.000000    -28.150900    -6.349944    11.678267    -57.601891    0.000000    0.000000    -28.800943    0.000000    0.000000    -3.247921    0.082743    2.853540    88.992043    52.944603    -5.601641    -4.170166    -18.414532    6.002651    28.104078    -61.985321    30.659462    -0.756122    0.259222    -1.008509    0.000000    0.000000    -1.110490    0.000000    0.000000    -2.220979    3.142799    0.000000    -0.000000    6.285597    0.000000    -0.000000    3.142799    0.000000    -0.000000    10.825052    -0.100843    -0.299229    21.650951    0.000000    -0.000000    10.825474    0.000000    -0.000000    18.506731    -0.240781    -0.582293    37.016312    0.000000    -0.000000    18.508152    0.000000    -0.000000    26.420490    -0.423186    -0.851667    52.847275    0.000000    -0.000000    26.423637    0.000000    -0.000000    -2.866705    -1.691351    -1.522573    -0.852894    3.199201    -5.731011    1.225636    -2.482187    6.668760    0.270594    0.914437    -0.375675    -2.184574    -5.698530    0.601990    1.537661    15.327764    -3.575712    -1.382516    -9.760684    -5.799099    0.127843    -0.361956    -0.204353    
-2.805839    81.423637    114.838936    1.601319    0.767747    3.063334    -1.491338    0.938593    -4.001845    -0.757723    3.824415    -1.312406    4.018219    -5.022188    -2.486282    -5.546649    3.876784    -1.313281    2.130277    8.487946    -9.267114    -83.571274    38.912106    -5.036264    7.414678    -9.854631    1.082854    -9.655348    -41.810875    -10.566083    7.598261    -2.561761    5.063410    -0.000000    0.000000    3.077493    -0.000000    0.000000    6.154987    -4.271374    0.064986    -0.870029    -8.543736    0.000000    0.000000    -4.271868    0.000000    0.000000    -12.244384    -1.457938    3.552512    -24.642414    0.000000    0.000000    -12.321207    0.000000    0.000000    -20.087776    -3.575022    7.727161    -40.741089    0.000000    0.000000    -20.370550    0.000000    0.000000    -28.015152    -6.325192    11.698900    -57.327614    0.000000    0.000000    -28.663807    0.000000    0.000000    -3.243444    0.138184    2.848846    89.020737    52.734875    -5.653034    -4.164618    -18.610056    6.063707    28.194654    -62.306461    30.773060    -0.755096    0.290960    -1.061534    0.000000    0.000000    -1.161781    0.000000    0.000000    -2.323562    3.116778    0.000000    -0.000000    6.233556    0.000000    -0.000000    3.116778    0.000000    -0.000000    10.783330    -0.100887    -0.300357    21.567501    0.000000    -0.000000    10.783753    0.000000    -0.000000    18.449295    -0.240941    -0.584572    36.901451    0.000000    -0.000000    18.450724    0.000000    -0.000000    26.346867    -0.423550    -0.855155    52.700058    0.000000    -0.000000    26.350029    0.000000    -0.000000    -2.929241    -2.056961    -1.478671    -0.799736    3.659650    -6.072539    1.238539    -2.646704    6.807545    0.265677    0.920904    -0.360943    -2.198817    -5.527632    0.481404    1.475406    14.773240    -3.517318    -1.383813    -9.508547    -5.881591    0.121894    -0.398892    -0.192832    
-2.802231    81.455940    114.789215    1.624568    0.861180    3.215276    -1.603554    0.976600    -4.114316    -0.628627    3.726663    -1.355215    3.979061    -5.093984    -2.472675    -5.589662    3.816600    -1.301154    2.153157    8.481013    -9.332339    -83.716415    39.039860    -5.037234    7.412383    -9.942400    1.100090    -9.590796    -41.857258    -10.531290    7.582538    -2.509194    5.115537    -0.000000    0.000000    3.125066    -0.000000    0.000000    6.250132    -4.219359    0.063515    -0.860868    -8.439672    0.000000    0.000000    -4.219836    0.000000    0.000000    -12.172112    -1.456457    3.570948    -24.498409    0.000000    0.000000    -12.249206    0.000000    0.000000    -19.995123    -3.570410    7.755938    -40.557148    0.000000    0.000000    -20.278572    0.000000    0.000000    -27.901121    -6.317404    11.739680    -57.102512    0.000000    0.000000    -28.551256    0.000000    0.000000    -3.240300    0.185896    2.843806    89.066154    52.550247    -5.712379    -4.166703    -18.789358    6.116654    28.282154    -62.590084    30.890913    -0.758888    0.318509    -1.111025    0.000000    0.000000    -1.208376    0.000000    0.000000    -2.416751    3.090095    0.000000    -0.000000    6.180190    0.000000    -0.000000    3.090095    0.000000    -0.000000    10.742763    -0.099336    -0.296678    21.486357    0.000000    -0.000000    10.743177    0.000000    -0.000000    18.394869    -0.237295    -0.577488    36.792522    0.000000    -0.000000    18.396255    0.000000    -0.000000    26.278173    -0.417225    -0.844931    52.562500    0.000000    -0.000000    26.281250    0.000000    -0.000000    -2.993223    -2.426152    -1.435507    -0.749566    4.131023    -6.383344    1.253738    -2.817009    6.922899    0.261575    0.922742    -0.349889    -2.214952    -5.352927    0.380257    1.417741    14.214928    -3.461935    -1.385809    -9.260949    -5.976782    0.115038    -0.441634    -0.179534    
